<svg width="32" height="32" viewBox="0 0 32 32" fill="none" xmlns="http://www.w3.org/2000/svg">
<rect width="32" height="32" rx="16" fill="#006E37"></rect>
<path d="M21.1033 4.7998H17.1573V20.0578C17.1573 21.8758 15.6396 23.3691 13.7509 23.3691C11.8622 23.3691 10.3445 21.8758 10.3445 20.0578C10.3445 18.2723 11.8285 16.8114 13.6497 16.7465V12.9158C9.63621 12.9807 6.39844 16.1297 6.39844 20.0578C6.39844 24.0184 9.70366 27.1998 13.7846 27.1998C17.8655 27.1998 21.1708 23.9859 21.1708 20.0578V12.234C22.6548 13.2729 24.476 13.8897 26.3984 13.9221V10.0914C23.4305 9.99401 21.1033 7.65661 21.1033 4.7998Z" fill="#FDFAF0"></path>
</svg>