<svg width="32" height="32" viewBox="0 0 32 32" fill="none" xmlns="http://www.w3.org/2000/svg">
  <rect width="32" height="32" rx="16" fill="#006E37"></rect>
  <path d="M24.5 12.2a2.25 2.25 0 0 0-1.58-1.59C21.52 10.25 16 10.25 16 10.25s-5.52 0-6.92.36A2.25 2.25 0 0 0 7.5 12.2C7.14 13.6 7.14 16 7.14 16s0 2.4.36 3.8a2.25 2.25 0 0 0 1.58 1.59c1.4.36 6.92.36 6.92.36s5.52 0 6.92-.36a2.25 2.25 0 0 0 1.58-1.59c.36-1.4.36-3.8.36-3.8s0-2.4-.36-3.8Zm-10.25 6.15v-4.7L18.8 16l-4.55 2.35Z" fill="#FDFAF0"></path>
</svg>