<svg xmlns="http://www.w3.org/2000/svg" viewBox="0 0 900 900" role="img" aria-label="Lulabite Natural Sleep Gummies">
  <defs>
    <linearGradient id="bg" x1="0" y1="0" x2="1" y2="1">
      <stop offset="0" stop-color="#f7f1ff"/>
      <stop offset="0.54" stop-color="#d9ecff"/>
      <stop offset="1" stop-color="#fff4dc"/>
    </linearGradient>
    <linearGradient id="label" x1="0" y1="0" x2="0" y2="1">
      <stop offset="0" stop-color="#2e2159"/>
      <stop offset="1" stop-color="#57408f"/>
    </linearGradient>
  </defs>
  <rect width="900" height="900" fill="url(#bg)"/>
  <circle cx="690" cy="170" r="82" fill="#ffe38f"/>
  <circle cx="660" cy="142" r="84" fill="url(#bg)"/>
  <g fill="#ffffff" opacity="0.9">
    <circle cx="145" cy="172" r="7"/>
    <circle cx="245" cy="112" r="5"/>
    <circle cx="765" cy="328" r="6"/>
    <circle cx="110" cy="690" r="5"/>
  </g>
  <g transform="translate(300 150)">
    <rect x="74" y="0" width="152" height="72" rx="24" fill="#cab7ff"/>
    <rect x="54" y="58" width="192" height="82" rx="22" fill="#ffffff"/>
    <rect x="28" y="116" width="244" height="478" rx="72" fill="#f9f6ff" stroke="#2e2159" stroke-width="10"/>
    <rect x="55" y="236" width="190" height="220" rx="34" fill="url(#label)"/>
    <text x="150" y="303" text-anchor="middle" font-family="Georgia, serif" font-size="44" fill="#ffffff">Lulabite</text>
    <text x="150" y="354" text-anchor="middle" font-family="Arial, sans-serif" font-size="22" letter-spacing="2" fill="#ffe38f">SLEEP</text>
    <text x="150" y="393" text-anchor="middle" font-family="Arial, sans-serif" font-size="22" fill="#ffffff">GUMMIES</text>
    <circle cx="98" cy="512" r="28" fill="#8c5be8"/>
    <circle cx="154" cy="528" r="28" fill="#f0b95c"/>
    <circle cx="208" cy="512" r="28" fill="#88bdf2"/>
  </g>
</svg>
